<svg width="19" height="19" viewBox="0 0 19 19" fill="none" xmlns="http://www.w3.org/2000/svg">
<path d="M9.5 1C4.80558 1 1 4.80558 1 9.5C1 14.1944 4.80558 18 9.5 18C14.1944 18 18 14.1944 18 9.5C18 4.80558 14.1944 1 9.5 1Z" stroke="#8F8F8F" stroke-width="1.5" stroke-linecap="round" stroke-linejoin="round"/>
<path d="M2.93032 14.8939C2.93032 14.8939 4.82499 12.475 9.49997 12.475C14.175 12.475 16.0697 14.8939 16.0697 14.8939" stroke="#8F8F8F" stroke-width="1.5" stroke-linecap="round" stroke-linejoin="round"/>
<path d="M9.49997 9.49999C10.9083 9.49999 12.05 8.35836 12.05 6.94999C12.05 5.54167 10.9083 4.39999 9.49997 4.39999C8.09161 4.39999 6.94997 5.54167 6.94997 6.94999C6.94997 8.35836 8.09161 9.49999 9.49997 9.49999Z" stroke="#8F8F8F" stroke-width="1.5" stroke-linecap="round" stroke-linejoin="round"/>
</svg>
